<?xml version="1.0" encoding="us-ascii" standalone="no"?><svg xmlns="http://www.w3.org/2000/svg" xmlns:xlink="http://www.w3.org/1999/xlink" contentStyleType="text/css" height="926px" preserveAspectRatio="none" style="width:1431px;height:926px;background:#FFFFFF;" version="1.1" viewBox="0 0 1431 926" width="1431px" zoomAndPan="magnify"><defs/><g><!--cluster ezvault--><g id="cluster_ezvault"><path d="M8.5,6 L175.5,6 A3.75,3.75 0 0 1 178,8.5 L185,28.2969 L1186.5,28.2969 A2.5,2.5 0 0 1 1189,30.7969 L1189,917.33 A2.5,2.5 0 0 1 1186.5,919.83 L8.5,919.83 A2.5,2.5 0 0 1 6,917.33 L6,8.5 A2.5,2.5 0 0 1 8.5,6 " fill="none" style="stroke:#000000;stroke-width:1.5;"/><line style="stroke:#000000;stroke-width:1.5;" x1="6" x2="185" y1="28.2969" y2="28.2969"/><text fill="#000000" font-family="sans-serif" font-size="14" font-weight="bold" lengthAdjust="spacing" textLength="166" x="10" y="20.9951">com.example.ezvault</text></g><!--cluster app--><g id="cluster_app"><path d="M1215.5,195.49 L1411.5,195.49 A3.75,3.75 0 0 1 1414,197.99 L1421,217.7869 L1421.5,217.7869 A2.5,2.5 0 0 1 1424,220.2869 L1424,291.99 A2.5,2.5 0 0 1 1421.5,294.49 L1215.5,294.49 A2.5,2.5 0 0 1 1213,291.99 L1213,197.99 A2.5,2.5 0 0 1 1215.5,195.49 " fill="none" style="stroke:#000000;stroke-width:1.5;"/><line style="stroke:#000000;stroke-width:1.5;" x1="1213" x2="1421" y1="217.7869" y2="217.7869"/><text fill="#000000" font-family="sans-serif" font-size="14" font-weight="bold" lengthAdjust="spacing" textLength="195" x="1217" y="210.4851">androidx.appcompat.app</text></g><!--class LoginHandler--><g id="elem_LoginHandler"><rect codeLine="3" fill="#F1F1F1" height="96.8906" id="LoginHandler" rx="2.5" ry="2.5" style="stroke:#181818;stroke-width:0.5;" width="286" x="61" y="41"/><ellipse cx="154.75" cy="57" fill="#ADD1B2" rx="11" ry="11" style="stroke:#181818;stroke-width:1.0;"/><path d="M157.7188,62.6406 Q157.1406,62.9375 156.5,63.0781 Q155.8594,63.2344 155.1563,63.2344 Q152.6563,63.2344 151.3281,61.5938 Q150.0156,59.9375 150.0156,56.8125 Q150.0156,53.6875 151.3281,52.0313 Q152.6563,50.375 155.1563,50.375 Q155.8594,50.375 156.5,50.5313 Q157.1563,50.6875 157.7188,50.9844 L157.7188,53.7031 Q157.0938,53.125 156.5,52.8594 Q155.9063,52.5781 155.2813,52.5781 Q153.9375,52.5781 153.25,53.6563 Q152.5625,54.7188 152.5625,56.8125 Q152.5625,58.9063 153.25,59.9844 Q153.9375,61.0469 155.2813,61.0469 Q155.9063,61.0469 156.5,60.7813 Q157.0938,60.5 157.7188,59.9219 L157.7188,62.6406 Z " fill="#000000"/><text fill="#000000" font-family="sans-serif" font-size="14" lengthAdjust="spacing" textLength="90" x="175.25" y="61.8467">LoginHandler</text><line style="stroke:#181818;stroke-width:0.5;" x1="62" x2="346" y1="73" y2="73"/><text fill="#000000" font-family="sans-serif" font-size="14" lengthAdjust="spacing" textLength="164" x="67" y="89.9951">-strategy: LoginStrategy</text><line style="stroke:#181818;stroke-width:0.5;" x1="62" x2="346" y1="97.2969" y2="97.2969"/><text fill="#000000" font-family="sans-serif" font-size="14" lengthAdjust="spacing" textLength="274" x="67" y="114.292">+&#171;Create&#187; LoginHandler(LoginStrategy)</text><text fill="#000000" font-family="sans-serif" font-size="14" lengthAdjust="spacing" textLength="153" x="67" y="130.5889">+login(): Task&lt;User&gt;</text></g><!--class MainActivity--><g id="elem_MainActivity"><rect codeLine="8" fill="#F1F1F1" height="80.5938" id="MainActivity" rx="2.5" ry="2.5" style="stroke:#181818;stroke-width:0.5;" width="196" x="977" y="387.38"/><ellipse cx="1031.25" cy="403.38" fill="#ADD1B2" rx="11" ry="11" style="stroke:#181818;stroke-width:1.0;"/><path d="M1034.2188,409.0206 Q1033.6406,409.3175 1033,409.4581 Q1032.3594,409.6144 1031.6563,409.6144 Q1029.1563,409.6144 1027.8281,407.9738 Q1026.5156,406.3175 1026.5156,403.1925 Q1026.5156,400.0675 1027.8281,398.4113 Q1029.1563,396.755 1031.6563,396.755 Q1032.3594,396.755 1033,396.9113 Q1033.6563,397.0675 1034.2188,397.3644 L1034.2188,400.0831 Q1033.5938,399.505 1033,399.2394 Q1032.4063,398.9581 1031.7813,398.9581 Q1030.4375,398.9581 1029.75,400.0363 Q1029.0625,401.0988 1029.0625,403.1925 Q1029.0625,405.2863 1029.75,406.3644 Q1030.4375,407.4269 1031.7813,407.4269 Q1032.4063,407.4269 1033,407.1613 Q1033.5938,406.88 1034.2188,406.3019 L1034.2188,409.0206 Z " fill="#000000"/><text fill="#000000" font-family="sans-serif" font-size="14" lengthAdjust="spacing" textLength="79" x="1051.75" y="408.2267">MainActivity</text><line style="stroke:#181818;stroke-width:0.5;" x1="978" x2="1172" y1="419.38" y2="419.38"/><text fill="#000000" font-family="sans-serif" font-size="14" lengthAdjust="spacing" textLength="184" x="983" y="436.3751">~firebase: FirebaseBundle</text><line style="stroke:#181818;stroke-width:0.5;" x1="978" x2="1172" y1="443.6769" y2="443.6769"/><text fill="#000000" font-family="sans-serif" font-size="14" lengthAdjust="spacing" textLength="172" x="983" y="460.672">#onCreate(Bundle): void</text></g><!--class LoginStrategy--><g id="elem_LoginStrategy"><rect codeLine="12" fill="#F1F1F1" height="64.2969" id="LoginStrategy" rx="2.5" ry="2.5" style="stroke:#181818;stroke-width:0.5;" width="251" x="78.5" y="222.34"/><ellipse cx="152.75" cy="238.34" fill="#B4A7E5" rx="11" ry="11" style="stroke:#181818;stroke-width:1.0;"/><path d="M148.6719,234.1056 L148.6719,231.9494 L156.0625,231.9494 L156.0625,234.1056 L153.5938,234.1056 L153.5938,242.1838 L156.0625,242.1838 L156.0625,244.34 L148.6719,244.34 L148.6719,242.1838 L151.1406,242.1838 L151.1406,234.1056 L148.6719,234.1056 Z " fill="#000000"/><text fill="#000000" font-family="sans-serif" font-size="14" font-style="italic" lengthAdjust="spacing" textLength="94" x="173.25" y="243.1867">LoginStrategy</text><line style="stroke:#181818;stroke-width:0.5;" x1="79.5" x2="328.5" y1="254.34" y2="254.34"/><line style="stroke:#181818;stroke-width:0.5;" x1="79.5" x2="328.5" y1="262.34" y2="262.34"/><text fill="#000000" font-family="sans-serif" font-size="14" lengthAdjust="spacing" textLength="239" x="84.5" y="279.3351">~authenticateUser(): Task&lt;User&gt;</text></g><!--class EmailPasswordLoginStrategy--><g id="elem_EmailPasswordLoginStrategy"><rect codeLine="15" fill="#F1F1F1" height="113.1875" id="EmailPasswordLoginStrategy" rx="2.5" ry="2.5" style="stroke:#181818;stroke-width:0.5;" width="495" x="22.5" y="560.56"/><ellipse cx="167.25" cy="576.56" fill="#ADD1B2" rx="11" ry="11" style="stroke:#181818;stroke-width:1.0;"/><path d="M170.2188,582.2006 Q169.6406,582.4975 169,582.6381 Q168.3594,582.7944 167.6563,582.7944 Q165.1563,582.7944 163.8281,581.1538 Q162.5156,579.4975 162.5156,576.3725 Q162.5156,573.2475 163.8281,571.5913 Q165.1563,569.935 167.6563,569.935 Q168.3594,569.935 169,570.0913 Q169.6563,570.2475 170.2188,570.5444 L170.2188,573.2631 Q169.5938,572.685 169,572.4194 Q168.4063,572.1381 167.7813,572.1381 Q166.4375,572.1381 165.75,573.2163 Q165.0625,574.2788 165.0625,576.3725 Q165.0625,578.4663 165.75,579.5444 Q166.4375,580.6069 167.7813,580.6069 Q168.4063,580.6069 169,580.3413 Q169.5938,580.06 170.2188,579.4819 L170.2188,582.2006 Z " fill="#000000"/><text fill="#000000" font-family="sans-serif" font-size="14" lengthAdjust="spacing" textLength="197" x="187.75" y="581.4067">EmailPasswordLoginStrategy</text><line style="stroke:#181818;stroke-width:0.5;" x1="23.5" x2="516.5" y1="592.56" y2="592.56"/><text fill="#000000" font-family="sans-serif" font-size="14" lengthAdjust="spacing" textLength="90" x="28.5" y="609.5551">-email: String</text><text fill="#000000" font-family="sans-serif" font-size="14" lengthAdjust="spacing" textLength="121" x="28.5" y="625.852">-password: String</text><line style="stroke:#181818;stroke-width:0.5;" x1="23.5" x2="516.5" y1="633.1538" y2="633.1538"/><text fill="#000000" font-family="sans-serif" font-size="14" lengthAdjust="spacing" textLength="483" x="28.5" y="650.1489">+&#171;Create&#187; EmailPasswordLoginStrategy(FirebaseBundle,String,String)</text><text fill="#000000" font-family="sans-serif" font-size="14" lengthAdjust="spacing" textLength="323" x="28.5" y="666.4457">+authenticate(FirebaseBundle): Task&lt;String&gt;</text></g><!--class FirebaseBundle--><g id="elem_FirebaseBundle"><rect codeLine="21" fill="#F1F1F1" height="145.7813" id="FirebaseBundle" rx="2.5" ry="2.5" style="stroke:#181818;stroke-width:0.5;" width="425" x="552.5" y="544.27"/><ellipse cx="706.75" cy="560.27" fill="#ADD1B2" rx="11" ry="11" style="stroke:#181818;stroke-width:1.0;"/><path d="M709.7188,565.9106 Q709.1406,566.2075 708.5,566.3481 Q707.8594,566.5044 707.1563,566.5044 Q704.6563,566.5044 703.3281,564.8638 Q702.0156,563.2075 702.0156,560.0825 Q702.0156,556.9575 703.3281,555.3013 Q704.6563,553.645 707.1563,553.645 Q707.8594,553.645 708.5,553.8013 Q709.1563,553.9575 709.7188,554.2544 L709.7188,556.9731 Q709.0938,556.395 708.5,556.1294 Q707.9063,555.8481 707.2813,555.8481 Q705.9375,555.8481 705.25,556.9263 Q704.5625,557.9888 704.5625,560.0825 Q704.5625,562.1763 705.25,563.2544 Q705.9375,564.3169 707.2813,564.3169 Q707.9063,564.3169 708.5,564.0513 Q709.0938,563.77 709.7188,563.1919 L709.7188,565.9106 Z " fill="#000000"/><text fill="#000000" font-family="sans-serif" font-size="14" lengthAdjust="spacing" textLength="108" x="727.25" y="565.1167">FirebaseBundle</text><line style="stroke:#181818;stroke-width:0.5;" x1="553.5" x2="976.5" y1="576.27" y2="576.27"/><text fill="#000000" font-family="sans-serif" font-size="14" lengthAdjust="spacing" textLength="152" x="558.5" y="593.2651">-db: FirebaseFirestore</text><text fill="#000000" font-family="sans-serif" font-size="14" lengthAdjust="spacing" textLength="136" x="558.5" y="609.562">-auth: FirebaseAuth</text><line style="stroke:#181818;stroke-width:0.5;" x1="553.5" x2="976.5" y1="616.8638" y2="616.8638"/><text fill="#000000" font-family="sans-serif" font-size="14" lengthAdjust="spacing" textLength="198" x="558.5" y="633.8589">+&#171;Create&#187; FirebaseBundle()</text><text fill="#000000" font-family="sans-serif" font-size="14" lengthAdjust="spacing" textLength="413" x="558.5" y="650.1557">+&#171;Create&#187; FirebaseBundle(FirebaseFirestore,FirebaseAuth)</text><text fill="#000000" font-family="sans-serif" font-size="14" lengthAdjust="spacing" textLength="194" x="558.5" y="666.4526">+getDb(): FirebaseFirestore</text><text fill="#000000" font-family="sans-serif" font-size="14" lengthAdjust="spacing" textLength="177" x="558.5" y="682.7495">+getAuth(): FirebaseAuth</text></g><!--class FirebaseLoginStrategy--><g id="elem_FirebaseLoginStrategy"><rect codeLine="29" fill="#F1F1F1" height="113.1875" id="FirebaseLoginStrategy" rx="2.5" ry="2.5" style="stroke:#181818;stroke-width:0.5;" width="363" x="22.5" y="371.08"/><ellipse cx="123.25" cy="387.08" fill="#A9DCDF" rx="11" ry="11" style="stroke:#181818;stroke-width:1.0;"/><path d="M123.3594,382.4238 L122.2031,387.5019 L124.5313,387.5019 L123.3594,382.4238 Z M121.875,380.1894 L124.8594,380.1894 L128.2188,392.58 L125.7656,392.58 L125,389.5175 L121.7188,389.5175 L120.9688,392.58 L118.5313,392.58 L121.875,380.1894 Z " fill="#000000"/><text fill="#000000" font-family="sans-serif" font-size="14" font-style="italic" lengthAdjust="spacing" textLength="153" x="143.75" y="391.9267">FirebaseLoginStrategy</text><line style="stroke:#181818;stroke-width:0.5;" x1="23.5" x2="384.5" y1="403.08" y2="403.08"/><text fill="#000000" font-family="sans-serif" font-size="14" lengthAdjust="spacing" textLength="177" x="28.5" y="420.0751">-firebase: FirebaseBundle</text><line style="stroke:#181818;stroke-width:0.5;" x1="23.5" x2="384.5" y1="427.3769" y2="427.3769"/><text fill="#000000" font-family="sans-serif" font-size="14" lengthAdjust="spacing" textLength="351" x="28.5" y="444.372">+&#171;Create&#187; FirebaseLoginStrategy(FirebaseBundle)</text><text fill="#000000" font-family="sans-serif" font-size="14" lengthAdjust="spacing" textLength="239" x="28.5" y="460.6689">+authenticateUser(): Task&lt;User&gt;</text><text fill="#000000" font-family="sans-serif" font-size="14" font-style="italic" lengthAdjust="spacing" textLength="323" x="28.5" y="476.9657">+authenticate(FirebaseBundle): Task&lt;String&gt;</text></g><!--class Tag--><g id="elem_Tag"><rect codeLine="36" fill="#F1F1F1" height="113.1875" id="Tag" rx="2.5" ry="2.5" style="stroke:#181818;stroke-width:0.5;" width="192" x="739" y="197.89"/><ellipse cx="817.75" cy="213.89" fill="#ADD1B2" rx="11" ry="11" style="stroke:#181818;stroke-width:1.0;"/><path d="M820.7188,219.5306 Q820.1406,219.8275 819.5,219.9681 Q818.8594,220.1244 818.1563,220.1244 Q815.6563,220.1244 814.3281,218.4838 Q813.0156,216.8275 813.0156,213.7025 Q813.0156,210.5775 814.3281,208.9213 Q815.6563,207.265 818.1563,207.265 Q818.8594,207.265 819.5,207.4213 Q820.1563,207.5775 820.7188,207.8744 L820.7188,210.5931 Q820.0938,210.015 819.5,209.7494 Q818.9063,209.4681 818.2813,209.4681 Q816.9375,209.4681 816.25,210.5463 Q815.5625,211.6088 815.5625,213.7025 Q815.5625,215.7963 816.25,216.8744 Q816.9375,217.9369 818.2813,217.9369 Q818.9063,217.9369 819.5,217.6713 Q820.0938,217.39 820.7188,216.8119 L820.7188,219.5306 Z " fill="#000000"/><text fill="#000000" font-family="sans-serif" font-size="14" lengthAdjust="spacing" textLength="26" x="838.25" y="218.7367">Tag</text><line style="stroke:#181818;stroke-width:0.5;" x1="740" x2="930" y1="229.89" y2="229.89"/><text fill="#000000" font-family="sans-serif" font-size="14" lengthAdjust="spacing" textLength="113" x="745" y="246.8851">-identifier: String</text><line style="stroke:#181818;stroke-width:0.5;" x1="740" x2="930" y1="254.1869" y2="254.1869"/><text fill="#000000" font-family="sans-serif" font-size="14" lengthAdjust="spacing" textLength="156" x="745" y="271.182">+&#171;Create&#187; Tag(String)</text><text fill="#000000" font-family="sans-serif" font-size="14" lengthAdjust="spacing" textLength="153" x="745" y="287.4789">+getIdentifier(): String</text><text fill="#000000" font-family="sans-serif" font-size="14" lengthAdjust="spacing" textLength="180" x="745" y="303.7757">+setIdentifier(String): void</text></g><!--class TagDAO--><g id="elem_TagDAO"><rect codeLine="42" fill="#F1F1F1" height="80.5938" id="TagDAO" rx="2.5" ry="2.5" style="stroke:#181818;stroke-width:0.5;" width="267" x="420.5" y="387.38"/><ellipse cx="521.25" cy="403.38" fill="#ADD1B2" rx="11" ry="11" style="stroke:#181818;stroke-width:1.0;"/><path d="M524.2188,409.0206 Q523.6406,409.3175 523,409.4581 Q522.3594,409.6144 521.6563,409.6144 Q519.1563,409.6144 517.8281,407.9738 Q516.5156,406.3175 516.5156,403.1925 Q516.5156,400.0675 517.8281,398.4113 Q519.1563,396.755 521.6563,396.755 Q522.3594,396.755 523,396.9113 Q523.6563,397.0675 524.2188,397.3644 L524.2188,400.0831 Q523.5938,399.505 523,399.2394 Q522.4063,398.9581 521.7813,398.9581 Q520.4375,398.9581 519.75,400.0363 Q519.0625,401.0988 519.0625,403.1925 Q519.0625,405.2863 519.75,406.3644 Q520.4375,407.4269 521.7813,407.4269 Q522.4063,407.4269 523,407.1613 Q523.5938,406.88 524.2188,406.3019 L524.2188,409.0206 Z " fill="#000000"/><text fill="#000000" font-family="sans-serif" font-size="14" lengthAdjust="spacing" textLength="57" x="541.75" y="408.2267">TagDAO</text><line style="stroke:#181818;stroke-width:0.5;" x1="421.5" x2="686.5" y1="419.38" y2="419.38"/><text fill="#000000" font-family="sans-serif" font-size="14" lengthAdjust="spacing" textLength="177" x="426.5" y="436.3751">-firebase: FirebaseBundle</text><line style="stroke:#181818;stroke-width:0.5;" x1="421.5" x2="686.5" y1="443.6769" y2="443.6769"/><text fill="#000000" font-family="sans-serif" font-size="14" lengthAdjust="spacing" textLength="255" x="426.5" y="460.672">+&#171;Create&#187; TagDAO(FirebaseBundle)</text></g><!--class TagCreator--><g id="elem_TagCreator"><rect codeLine="47" fill="#F1F1F1" height="80.5938" id="TagCreator" rx="2.5" ry="2.5" style="stroke:#181818;stroke-width:0.5;" width="219" x="722.5" y="387.38"/><ellipse cx="789.25" cy="403.38" fill="#ADD1B2" rx="11" ry="11" style="stroke:#181818;stroke-width:1.0;"/><path d="M792.2188,409.0206 Q791.6406,409.3175 791,409.4581 Q790.3594,409.6144 789.6563,409.6144 Q787.1563,409.6144 785.8281,407.9738 Q784.5156,406.3175 784.5156,403.1925 Q784.5156,400.0675 785.8281,398.4113 Q787.1563,396.755 789.6563,396.755 Q790.3594,396.755 791,396.9113 Q791.6563,397.0675 792.2188,397.3644 L792.2188,400.0831 Q791.5938,399.505 791,399.2394 Q790.4063,398.9581 789.7813,398.9581 Q788.4375,398.9581 787.75,400.0363 Q787.0625,401.0988 787.0625,403.1925 Q787.0625,405.2863 787.75,406.3644 Q788.4375,407.4269 789.7813,407.4269 Q790.4063,407.4269 791,407.1613 Q791.5938,406.88 792.2188,406.3019 L792.2188,409.0206 Z " fill="#000000"/><text fill="#000000" font-family="sans-serif" font-size="14" lengthAdjust="spacing" textLength="77" x="809.75" y="408.2267">TagCreator</text><line style="stroke:#181818;stroke-width:0.5;" x1="723.5" x2="940.5" y1="419.38" y2="419.38"/><text fill="#000000" font-family="sans-serif" font-size="14" lengthAdjust="spacing" textLength="89" x="728.5" y="436.3751">-ident: String</text><line style="stroke:#181818;stroke-width:0.5;" x1="723.5" x2="940.5" y1="443.6769" y2="443.6769"/><text fill="#000000" font-family="sans-serif" font-size="14" lengthAdjust="spacing" textLength="207" x="728.5" y="460.672">+&#171;Create&#187; TagCreator(String)</text></g><!--class TagService--><g id="elem_TagService"><rect codeLine="52" fill="#F1F1F1" height="96.8906" id="TagService" rx="2.5" ry="2.5" style="stroke:#181818;stroke-width:0.5;" width="235" x="447.5" y="206.04"/><ellipse cx="522.75" cy="222.04" fill="#ADD1B2" rx="11" ry="11" style="stroke:#181818;stroke-width:1.0;"/><path d="M525.7188,227.6806 Q525.1406,227.9775 524.5,228.1181 Q523.8594,228.2744 523.1563,228.2744 Q520.6563,228.2744 519.3281,226.6338 Q518.0156,224.9775 518.0156,221.8525 Q518.0156,218.7275 519.3281,217.0713 Q520.6563,215.415 523.1563,215.415 Q523.8594,215.415 524.5,215.5713 Q525.1563,215.7275 525.7188,216.0244 L525.7188,218.7431 Q525.0938,218.165 524.5,217.8994 Q523.9063,217.6181 523.2813,217.6181 Q521.9375,217.6181 521.25,218.6963 Q520.5625,219.7588 520.5625,221.8525 Q520.5625,223.9463 521.25,225.0244 Q521.9375,226.0869 523.2813,226.0869 Q523.9063,226.0869 524.5,225.8213 Q525.0938,225.54 525.7188,224.9619 L525.7188,227.6806 Z " fill="#000000"/><text fill="#000000" font-family="sans-serif" font-size="14" lengthAdjust="spacing" textLength="76" x="543.25" y="226.8867">TagService</text><line style="stroke:#181818;stroke-width:0.5;" x1="448.5" x2="681.5" y1="238.04" y2="238.04"/><text fill="#000000" font-family="sans-serif" font-size="14" lengthAdjust="spacing" textLength="124" x="453.5" y="255.0351">-tagDAO: TagDAO</text><text fill="#000000" font-family="sans-serif" font-size="14" lengthAdjust="spacing" textLength="171" x="453.5" y="271.332">+tagCreator: TagCreator</text><line style="stroke:#181818;stroke-width:0.5;" x1="448.5" x2="681.5" y1="278.6338" y2="278.6338"/><text fill="#000000" font-family="sans-serif" font-size="14" lengthAdjust="spacing" textLength="223" x="453.5" y="295.6289">+&#171;Create&#187; TagService(TagDAO)</text></g><!--class User--><g id="elem_User"><rect codeLine="59" fill="#F1F1F1" height="145.7813" id="User" rx="2.5" ry="2.5" style="stroke:#181818;stroke-width:0.5;" width="269" x="896.5" y="750.05"/><ellipse cx="1010.75" cy="766.05" fill="#ADD1B2" rx="11" ry="11" style="stroke:#181818;stroke-width:1.0;"/><path d="M1013.7188,771.6906 Q1013.1406,771.9875 1012.5,772.1281 Q1011.8594,772.2844 1011.1563,772.2844 Q1008.6563,772.2844 1007.3281,770.6438 Q1006.0156,768.9875 1006.0156,765.8625 Q1006.0156,762.7375 1007.3281,761.0813 Q1008.6563,759.425 1011.1563,759.425 Q1011.8594,759.425 1012.5,759.5813 Q1013.1563,759.7375 1013.7188,760.0344 L1013.7188,762.7531 Q1013.0938,762.175 1012.5,761.9094 Q1011.9063,761.6281 1011.2813,761.6281 Q1009.9375,761.6281 1009.25,762.7063 Q1008.5625,763.7688 1008.5625,765.8625 Q1008.5625,767.9563 1009.25,769.0344 Q1009.9375,770.0969 1011.2813,770.0969 Q1011.9063,770.0969 1012.5,769.8313 Q1013.0938,769.55 1013.7188,768.9719 L1013.7188,771.6906 Z " fill="#000000"/><text fill="#000000" font-family="sans-serif" font-size="14" lengthAdjust="spacing" textLength="32" x="1031.25" y="770.8967">User</text><line style="stroke:#181818;stroke-width:0.5;" x1="897.5" x2="1164.5" y1="782.05" y2="782.05"/><text fill="#000000" font-family="sans-serif" font-size="14" lengthAdjust="spacing" textLength="125" x="902.5" y="799.0451">-userName: String</text><text fill="#000000" font-family="sans-serif" font-size="14" lengthAdjust="spacing" textLength="75" x="902.5" y="815.342">-uid: String</text><line style="stroke:#181818;stroke-width:0.5;" x1="897.5" x2="1164.5" y1="822.6438" y2="822.6438"/><text fill="#000000" font-family="sans-serif" font-size="14" lengthAdjust="spacing" textLength="206" x="902.5" y="839.6389">+&#171;Create&#187; User(String,String)</text><text fill="#000000" font-family="sans-serif" font-size="14" lengthAdjust="spacing" textLength="166" x="902.5" y="855.9357">+getUserName(): String</text><text fill="#000000" font-family="sans-serif" font-size="14" lengthAdjust="spacing" textLength="257" x="902.5" y="872.2326">+applyUserNameUpdate(String): void</text><text fill="#000000" font-family="sans-serif" font-size="14" lengthAdjust="spacing" textLength="116" x="902.5" y="888.5295">+getUid(): String</text></g><!--class UserDAO--><g id="elem_UserDAO"><rect codeLine="67" fill="#F1F1F1" height="80.5938" id="UserDAO" rx="2.5" ry="2.5" style="stroke:#181818;stroke-width:0.5;" width="273" x="588.5" y="782.64"/><ellipse cx="689.25" cy="798.64" fill="#ADD1B2" rx="11" ry="11" style="stroke:#181818;stroke-width:1.0;"/><path d="M692.2188,804.2806 Q691.6406,804.5775 691,804.7181 Q690.3594,804.8744 689.6563,804.8744 Q687.1563,804.8744 685.8281,803.2338 Q684.5156,801.5775 684.5156,798.4525 Q684.5156,795.3275 685.8281,793.6713 Q687.1563,792.015 689.6563,792.015 Q690.3594,792.015 691,792.1713 Q691.6563,792.3275 692.2188,792.6244 L692.2188,795.3431 Q691.5938,794.765 691,794.4994 Q690.4063,794.2181 689.7813,794.2181 Q688.4375,794.2181 687.75,795.2963 Q687.0625,796.3588 687.0625,798.4525 Q687.0625,800.5463 687.75,801.6244 Q688.4375,802.6869 689.7813,802.6869 Q690.4063,802.6869 691,802.4213 Q691.5938,802.14 692.2188,801.5619 L692.2188,804.2806 Z " fill="#000000"/><text fill="#000000" font-family="sans-serif" font-size="14" lengthAdjust="spacing" textLength="63" x="709.75" y="803.4867">UserDAO</text><line style="stroke:#181818;stroke-width:0.5;" x1="589.5" x2="860.5" y1="814.64" y2="814.64"/><text fill="#000000" font-family="sans-serif" font-size="14" lengthAdjust="spacing" textLength="177" x="594.5" y="831.6351">-firebase: FirebaseBundle</text><line style="stroke:#181818;stroke-width:0.5;" x1="589.5" x2="860.5" y1="838.9369" y2="838.9369"/><text fill="#000000" font-family="sans-serif" font-size="14" lengthAdjust="spacing" textLength="261" x="594.5" y="855.932">+&#171;Create&#187; UserDAO(FirebaseBundle)</text></g><!--class AppCompatActivity--><g id="elem_AppCompatActivity"><rect fill="#F1F1F1" height="48" id="AppCompatActivity" rx="2.5" ry="2.5" style="stroke:#181818;stroke-width:0.5;" width="160" x="1229" y="230.49"/><ellipse cx="1244" cy="246.49" fill="#ADD1B2" rx="11" ry="11" style="stroke:#181818;stroke-width:1.0;"/><path d="M1246.9688,252.1306 Q1246.3906,252.4275 1245.75,252.5681 Q1245.1094,252.7244 1244.4063,252.7244 Q1241.9063,252.7244 1240.5781,251.0838 Q1239.2656,249.4275 1239.2656,246.3025 Q1239.2656,243.1775 1240.5781,241.5213 Q1241.9063,239.865 1244.4063,239.865 Q1245.1094,239.865 1245.75,240.0213 Q1246.4063,240.1775 1246.9688,240.4744 L1246.9688,243.1931 Q1246.3438,242.615 1245.75,242.3494 Q1245.1563,242.0681 1244.5313,242.0681 Q1243.1875,242.0681 1242.5,243.1463 Q1241.8125,244.2088 1241.8125,246.3025 Q1241.8125,248.3963 1242.5,249.4744 Q1243.1875,250.5369 1244.5313,250.5369 Q1245.1563,250.5369 1245.75,250.2713 Q1246.3438,249.99 1246.9688,249.4119 L1246.9688,252.1306 Z " fill="#000000"/><text fill="#000000" font-family="sans-serif" font-size="14" lengthAdjust="spacing" textLength="128" x="1258" y="251.3367">AppCompatActivity</text><line style="stroke:#181818;stroke-width:0.5;" x1="1230" x2="1388" y1="262.49" y2="262.49"/><line style="stroke:#181818;stroke-width:0.5;" x1="1230" x2="1388" y1="270.49" y2="270.49"/></g><!--reverse link FirebaseLoginStrategy to FirebaseBundle--><g id="link_FirebaseLoginStrategy_FirebaseBundle"><path codeLine="72" d="M384.65,489.05 C438.05,506.89 497,526.59 552.23,545.05 " fill="none" id="FirebaseLoginStrategy-backto-FirebaseBundle" style="stroke:#181818;stroke-width:1.0;"/><polygon fill="none" points="372.56,484.67,376.9852,490.3636,383.9429,488.4687,379.5177,482.7751,372.56,484.67" style="stroke:#181818;stroke-width:1.0;"/></g><!--reverse link MainActivity to FirebaseBundle--><g id="link_MainActivity_FirebaseBundle"><path codeLine="73" d="M997.47,475.56 C963.31,496.22 922.39,520.97 884.47,543.91 " fill="none" id="MainActivity-backto-FirebaseBundle" style="stroke:#181818;stroke-width:1.0;"/><polygon fill="none" points="1008.26,468.43,1001.0559,468.1114,997.9911,474.6388,1005.1951,474.9574,1008.26,468.43" style="stroke:#181818;stroke-width:1.0;"/></g><!--reverse link TagDAO to FirebaseBundle--><g id="link_TagDAO_FirebaseBundle"><path codeLine="74" d="M608.91,477.47 C631.72,497.73 658.66,521.67 683.69,543.91 " fill="none" id="TagDAO-backto-FirebaseBundle" style="stroke:#181818;stroke-width:1.0;"/><polygon fill="none" points="599.75,469.43,601.5738,476.4067,608.7153,477.4065,606.8915,470.4298,599.75,469.43" style="stroke:#181818;stroke-width:1.0;"/></g><!--reverse link FirebaseBundle to UserDAO--><g id="link_FirebaseBundle_UserDAO"><path codeLine="75" d="M748.17,703.91 C742.83,731.11 737.18,759.9 732.79,782.23 " fill="none" id="FirebaseBundle-backto-UserDAO" style="stroke:#181818;stroke-width:1.0;"/><polygon fill="none" points="750.84,691.29,745.7608,696.4088,748.5323,703.066,753.6115,697.9472,750.84,691.29" style="stroke:#181818;stroke-width:1.0;"/></g><!--reverse link TagService to TagCreator--><g id="link_TagService_TagCreator"><path codeLine="77" d="M651.29,310.81 C690.1,335.69 735.01,364.49 770.35,387.15 " fill="none" id="TagService-backto-TagCreator" style="stroke:#181818;stroke-width:1.0;"/><polygon fill="#181818" points="640.73,303.4,643.6228,310.0054,650.8327,309.8758,647.9399,303.2703,640.73,303.4" style="stroke:#181818;stroke-width:1.0;"/></g><!--reverse link TagService to TagDAO--><g id="link_TagService_TagDAO"><path codeLine="78" d="M561.05,316.93 C559.55,340.28 557.88,366.24 556.55,387.05 " fill="none" id="TagService-backto-TagDAO" style="stroke:#181818;stroke-width:1.0;"/><polygon fill="none" points="561.94,304.17,557.5594,309.898,561.1619,316.1447,565.5425,310.4167,561.94,304.17" style="stroke:#181818;stroke-width:1.0;"/></g><!--reverse link LoginHandler to LoginStrategy--><g id="link_LoginHandler_LoginStrategy"><path codeLine="80" d="M204,151.79 C204,175.74 204,202.16 204,222.07 " fill="none" id="LoginHandler-backto-LoginStrategy" style="stroke:#181818;stroke-width:1.0;"/><polygon fill="#181818" points="204,139.04,200,145.04,204,151.04,208,145.04,204,139.04" style="stroke:#181818;stroke-width:1.0;"/></g><!--reverse link AppCompatActivity to MainActivity--><g id="link_AppCompatActivity_MainActivity"><path codeLine="82" d="M1260.26,291.14 C1221.97,319.16 1168.67,358.15 1129.07,387.12 " fill="none" id="AppCompatActivity-backto-MainActivity" style="stroke:#181818;stroke-width:1.0;"/><polygon fill="none" points="1255.68,285.09,1275.95,278.93,1263.95,296.39,1255.68,285.09" style="stroke:#181818;stroke-width:1.0;"/></g><!--reverse link FirebaseLoginStrategy to EmailPasswordLoginStrategy--><g id="link_FirebaseLoginStrategy_EmailPasswordLoginStrategy"><path codeLine="83" d="M230.64,504.36 C237.2,522.99 244.11,542.61 250.27,560.13 " fill="none" id="FirebaseLoginStrategy-backto-EmailPasswordLoginStrategy" style="stroke:#181818;stroke-width:1.0;"/><polygon fill="none" points="223.75,506.86,223.71,485.67,236.96,502.21,223.75,506.86" style="stroke:#181818;stroke-width:1.0;"/></g><!--reverse link LoginStrategy to FirebaseLoginStrategy--><g id="link_LoginStrategy_FirebaseLoginStrategy"><path codeLine="84" d="M204,307.59 C204,327.61 204,350.53 204,370.88 " fill="none" id="LoginStrategy-backto-FirebaseLoginStrategy" style="stroke:#181818;stroke-width:1.0;stroke-dasharray:7.0,7.0;"/><polygon fill="none" points="197,307.88,204,287.88,211,307.88,197,307.88" style="stroke:#181818;stroke-width:1.0;"/></g><!--SRC=[fLNRRjim37tNLsZOYxCsnfwD843MRbY0NGga-G35PbmXla5IigQjz-sZPDcn7Dj9CR_O4id3SoXQb3kU5Komb8O9atAXbE2RlO9bc6Sh_WBqC_bG21QdZEubB3C58eM8CmKFBDon62JTiaG2CU4qp5CVdbbQ9E33ou7j4-N_o6EUVMTPb82WhsHAfH8O7ny3QamhkoGtT3Qx4u2B-Posepp7RuAEYTxm9W5zP78tMqiGSrAESFZ9UBO85JzmTKGEV-cM2zWm2G7zPh- -x7Kkyf7cMKN2gtOmoI7d4S9phNxBGXYMMNCqETXUFK6cU8XRck8x-7vD6KyUqFed5r4NUKf1cmEAUpoBSLrOpsRBAUKmcEUAlwsYxKlNkIsXuroBgPp7vRYHHaAqEPLUlwNA1U2-pdYoB73bYd6XlCcezIp1RHjOnyQWxZVwOCwv6AFsQviDePAmZMxYKD7BcizFRx3tUgMC7LZtY7gwx8Q-rcJBTvscob7-a_bbXqK-ijX8uf76tN8G_Is8Vjwfgn1usGHelas8T2msela1AJwZNEuNlv4EjSz8fMkNBaa4E2knzYl9vUG69nSE0LENHjzGLXlPLEZQZ2iG1nw2pJYboWW8h11IfL8DVj3AHVfuM3olYgzvEAqmpactdACVPuRunL8uAm6QU3HU6DFCdHlfv8YCrXQyrK4dEokAv5Xxh8j8jxpRJouMZpemvHLQ_w_VBC90mvMa_mR9fzCkkZFTUkpsp-YnT2vcxM5P4T9gi4-ut-gTbYMlB2R06VGwn1tl12q22__iuzbWHGkcz9U_A8exiseapDum-D8O9zTVkeDumvEHN1xnipVVl_xc_mS0]--></g></svg>